<?xml version="1.0" encoding="utf-8"?>
<!-- Generator: Adobe Illustrator 25.3.0, SVG Export Plug-In . SVG Version: 6.00 Build 0)  -->
<svg version="1.1" id="Layer_1" xmlns="http://www.w3.org/2000/svg" xmlns:xlink="http://www.w3.org/1999/xlink" x="0px" y="0px"
	 viewBox="0 0 995.5 1002" style="enable-background:new 0 0 995.5 1002;" xml:space="preserve">
<style type="text/css">
	.st0{display:none;fill:#B6CEFF;stroke:#000000;stroke-width:5;stroke-miterlimit:10;}
	.st1{display:none;fill:#9276FF;stroke:#000000;stroke-width:5;stroke-miterlimit:10;}
	.st2{display:none;fill:#FF5584;stroke:#000000;stroke-width:5;stroke-miterlimit:10;}
	.st3{fill:#FF5584;stroke:#000000;stroke-width:5;stroke-miterlimit:10;}
</style>
<path class="st0" d="M800,970.3H250.7c-89.5,0-162-72.5-162-162V258.9c0-89.5,72.5-162,162-162H800c89.5,0,162,72.5,162,162v549.4
	C962,897.8,889.5,970.3,800,970.3z"/>
<path class="st1" d="M741.5,900.3H192.1c-89.5,0-162-72.5-162-162V188.9c0-89.5,72.5-162,162-162h549.4c89.5,0,162,72.5,162,162
	v549.4C903.5,827.7,830.9,900.3,741.5,900.3z"/>
<circle class="st0" cx="498.2" cy="507.2" r="466"/>
<circle class="st1" cx="466" cy="463.3" r="439.6"/>
<path class="st2" d="M713.5,619.8L569.9,476.2c-7.6-7.6-7.6-19.8,0-27.3l143.6-143.6c7.6-7.6,7.6-19.8,0-27.3l-60.7-60.7
	c-7.6-7.6-19.8-7.6-27.3,0L481.9,360.9c-7.6,7.6-19.8,7.6-27.3,0L311,217.3c-7.6-7.6-19.8-7.6-27.3,0L222.9,278
	c-7.6,7.6-7.6,19.8,0,27.3l143.6,143.6c7.6,7.6,7.6,19.8,0,27.3L222.9,619.8c-7.6,7.6-7.6,19.8,0,27.3l60.7,60.7
	c7.6,7.6,19.8,7.6,27.3,0l143.6-143.6c7.6-7.6,19.8-7.6,27.3,0l143.6,143.6c7.6,7.6,19.8,7.6,27.3,0l60.7-60.7
	C721,639.6,721,627.4,713.5,619.8z"/>
<path class="st3" d="M953.6,799.8L687.1,533.3c-14-14-14-36.7,0-50.8L953.6,216c14-14,14-36.7,0-50.8L841,52.6
	c-14-14-36.7-14-50.8,0L523.7,319.1c-14,14-36.7,14-50.8,0L206.4,52.6c-14-14-36.7-14-50.8,0L43,165.2c-14,14-14,36.7,0,50.8
	l266.5,266.5c14,14,14,36.7,0,50.8L43,799.8c-14,14-14,36.7,0,50.8l112.6,112.6c14,14,36.7,14,50.8,0l266.5-266.5
	c14-14,36.7-14,50.8,0l266.5,266.5c14,14,36.7,14,50.8,0l112.6-112.6C967.6,836.5,967.6,813.8,953.6,799.8z"/>
</svg>
