<?xml version="1.0" encoding="utf-8"?>
<svg version="1.1" width="100%" height="100%" viewBox="0 0 80 80" xml:space="preserve">
  <style type="text/css">
	  .crystal-st0{ stroke-linejoin: round; stroke-width: .5px;}
  </style>
  <polyline class="crystal-st0 crystal-fill" points="3 52, 0 40, 3 28, 9 18, 18 9, 28 3, 40 0, 52 3, 62 9, 71 18, 77 28, 80 40, 77 52, 3 52" stroke="currentColor" fill="currentColor" />
  <polyline class="crystal-st0 crystal-stroke" points="3 52, 40 40, 0 40, 40 40, 3 28, 40 40, 18 9, 40 40, 40 0, 40 40, 62 9, 40 40, 77 28, 40 40, 80 40, 40 40, 77 52, 40 40, 3 52" stroke="#00ffffa2" fill="transparent" />
  <polyline class="crystal-st0 crystal-fill" points="55 55, 40 60, 25 55, 20 40, 25 25, 40 20, 55 25, 60 40, 55 55" stroke="#00ffffa2" fill="#00ffff22" />
</svg>