<svg id="Layer_1" data-name="Layer 1" xmlns="http://www.w3.org/2000/svg" viewBox="0 0 324.17 177.92"><defs><style>.cls-1,.cls-2,.cls-3,.cls-4,.cls-5,.cls-6{stroke:#f0f8ff;stroke-miterlimit:10;}.cls-1{fill:#737fbd;}.cls-2{fill:colorA;}.cls-3{fill:#afa7d3;}.cls-4{fill:none;}.cls-5{fill:#fff;}.cls-6{fill:#dceeed;}</style></defs><path class="cls-1" d="M241.2,107.22c0,47.14,20.81,85.36,46.5,85.36s59.8-38.22,59.8-85.36-34.12-85.36-59.8-85.36S241.2,60.08,241.2,107.22Z" transform="translate(-24.02 -18.67)"/><path class="cls-2" d="M270.76,167.93h-191v-121h191C304.39,67.13,300.48,147,270.76,167.93Z" transform="translate(-24.02 -18.67)"/><path class="cls-1" d="M134.71,107.64c0,48.85-21.57,88.46-48.19,88.46s-62-39.61-62-88.46,35.36-88.47,62-88.47S134.71,58.78,134.71,107.64Z" transform="translate(-24.02 -18.67)"/><path class="cls-3" d="M57.69,182.82c-18-15.53-33.17-43.58-33.17-75.61s15.08-59.86,33-75.43C89.61,79.62,88.05,130.08,57.69,182.82Z" transform="translate(-24.02 -18.67)"/><path class="cls-4" d="M371.74,220" transform="translate(-24.02 -18.67)"/><path class="cls-5" d="M332.74,55.5" transform="translate(-24.02 -18.67)"/><path class="cls-5" d="M332.74,55.5" transform="translate(-24.02 -18.67)"/><path class="cls-5" d="M332.93,55.76" transform="translate(-24.02 -18.67)"/><path class="cls-3" d="M332.73,159.82a99.9,99.9,0,0,0,.34-104.65C341.5,85.3,342.66,120.18,332.73,159.82Z" transform="translate(-24.02 -18.67)"/><path class="cls-6" d="M269.61,69.13c0,14.12-23.83,25.57-53.22,25.57s-53.22-11.45-53.22-25.57S188,55,217.43,55,269.61,55,269.61,69.13Z" transform="translate(-24.02 -18.67)"/><path class="cls-6" d="M140.84,85c.87-7.19,3.29-10.21,13.65-6.86,3,1,5.5,2.36,13.41,9.72,5.43,5.06,0,14.06-10.83,12.74S140,92.14,140.84,85Z" transform="translate(-24.02 -18.67)"/></svg>