<?xml version="1.0" encoding="utf-8"?>
<!-- Generator: Adobe Illustrator 25.3.0, SVG Export Plug-In . SVG Version: 6.00 Build 0)  -->
<svg version="1.1" id="Layer_1" xmlns="http://www.w3.org/2000/svg" xmlns:xlink="http://www.w3.org/1999/xlink" x="0px" y="0px"
	 viewBox="0 0 374.1 216.8" style="enable-background:new 0 0 374.1 216.8;" xml:space="preserve">
<style type="text/css">
	.st0{fill:#737FBD;stroke:#FFFFFF;stroke-miterlimit:10;}
	.st1{fill:colorA;stroke:#FFFFFF;stroke-miterlimit:10;}
	.st2{fill:#AFA7D3;stroke:#FFFFFF;stroke-miterlimit:10;}
	.st3{fill:none;stroke:#000000;stroke-miterlimit:10;}
	.st4{fill:#FFFFFF;stroke:#000000;stroke-miterlimit:10;}
	.st5{fill:#DCEEED;stroke:#000000;stroke-miterlimit:10;}
</style>
<path class="st0" d="M241.2,107.2c0,47.1,20.8,85.4,46.5,85.4s59.8-38.2,59.8-85.4s-34.1-85.4-59.8-85.4S241.2,60.1,241.2,107.2z"/>
<path class="st1" d="M270.8,167.9h-191v-121h191C304.4,67.1,300.5,147,270.8,167.9z"/>
<path class="st0" d="M134.7,107.6c0,48.9-21.6,88.5-48.2,88.5s-62-39.6-62-88.5s35.4-88.5,62-88.5S134.7,58.8,134.7,107.6z"/>
<path class="st2" d="M57.7,182.8c-18-15.5-33.2-43.6-33.2-75.6c0-31.9,15.1-59.9,33-75.4C89.6,79.6,88.1,130.1,57.7,182.8z"/>
<path class="st3" d="M371.7,220"/>
<path class="st4" d="M332.7,55.5"/>
<path class="st4" d="M332.7,55.5"/>
<path class="st4" d="M332.9,55.8"/>
<path class="st2" d="M332.7,159.8c8.9-14.5,15-32.8,15-52.6c0-19.6-5.9-37.6-14.6-52C341.5,85.3,342.7,120.2,332.7,159.8z"/>
<path class="st5" d="M269.6,69.1c0,14.1-23.8,25.6-53.2,25.6s-53.2-11.4-53.2-25.6S188,55,217.4,55S269.6,55,269.6,69.1z"/>
<path class="st5" d="M140.8,85c0.9-7.2,3.3-10.2,13.7-6.9c3,1,5.5,2.4,13.4,9.7c5.4,5.1,0,14.1-10.8,12.7
	C146.2,99.2,140,92.1,140.8,85z"/>
</svg>
