<?xml version="1.0" encoding="utf-8"?>
<!-- Generator: Adobe Illustrator 25.3.0, SVG Export Plug-In . SVG Version: 6.00 Build 0)  -->
<svg version="1.1" id="Layer_1" xmlns="http://www.w3.org/2000/svg" xmlns:xlink="http://www.w3.org/1999/xlink" x="0px" y="0px"
	viewBox="0 0 374.1 216.8" style="enable-background:new 0 0 374.1 216.8;" xml:space="preserve">
<style type="text/css">
	.st0{fill:#8F94CA;stroke:currentColor;stroke-miterlimit:10;}
	.st1{fill:colorA;stroke:currentColor;stroke-miterlimit:10;}
	.st2{fill:#e9f5f484;stroke:currentColor;stroke-miterlimit:10;}
</style>
<path class="st0" d="M241.2,107.2c0,47.1,20.8,85.4,46.5,85.4s59.8-38.2,59.8-85.4s-34.1-85.4-59.8-85.4S241.2,60.1,241.2,107.2z"/>
<path class="st1" d="M270.8,167.9h-191v-121h191C304.4,67.1,300.5,147,270.8,167.9z"/>
<path class="st0" d="M134.7,107.6c0,48.9-21.6,88.5-48.2,88.5s-62-39.6-62-88.5s35.4-88.5,62-88.5S134.7,58.8,134.7,107.6z"/>
<path class="st2" d="M256,69.7c0,14.1-23.8,25.6-53.2,25.6s-53.2-11.4-53.2-25.6s24.9-14.1,54.3-14.1S256,55.5,256,69.7z"/>
</svg>
