<?xml version="1.0" encoding="utf-8"?>
<svg version="1.1" id="Layer_1" xmlns="http://www.w3.org/2000/svg" xmlns:xlink="http://www.w3.org/1999/xlink" x="0px" y="0px"
	 viewBox="0 0 32 31.1" style="enable-background:new 0 0 32 31.1;" xml:space="preserve">
<path fill=#35cfc5c1 d="M26.6,6.1c0,0-4.4-2.3-11.8-0.4c-0.4,0.1-0.7-0.1-0.8-0.6V1c0-0.8-1-1.3-1.6-0.7L0.5,10.1
	c-0.6,0.5-0.6,1.5,0,2.1l11.9,9.9c0.6,0.5,1.6,0.1,1.6-0.7v-4.5c0-0.4,0.2-0.5,0.5-0.6c0.8-0.3,2.5-0.8,4.5-0.8
	c3.8-0.2,6.9,2.7,7,6.5c0.1,2.2-0.4,5.3-2.1,9.4c0,0,7.3-4.8,8.1-14.6C32,16.5,32.6,8.9,26.6,6.1z"/>
<ellipse transform="matrix(0.2866 -0.9581 0.9581 0.2866 -9.0528 44.8524)" fill=none stroke=#bb02bb76 stroke-width=0.75 stroke-miterlimit=10 cx="25.6" cy="28.5" rx="0.7" ry="2.6"/>
<path fill=#35cfc5c1 d="M27.7,27.5c-0.4,0.5-0.8,1-1.2,1.4c-1.3-0.1-1.6-0.4-1.6-0.4c0.2-0.6,0.3-1.1,0.5-1.6
	C25.3,26.9,26.8,27.5,27.7,27.5z"/>
<ellipse transform="matrix(0.2866 -0.9581 0.9581 0.2866 -6.4824 44.4464)" fill=none stroke=#bb02bb76 stroke-width=0.75 stroke-miterlimit=10 cx="26.6" cy="26.6" rx="1" ry="3.8"/>
<path fill=#35cfc5c1 d="M28.3,26.7c0.2-0.3,0.5-0.7,0.7-1c-1.3-0.8-3.2-1-3.2-1c-0.1,0.4-0.1,0.8-0.2,1.2
	C25.6,25.8,27.3,26.1,28.3,26.7z"/>
</svg>
