<?xml version="1.0" encoding="utf-8"?>
<!-- Generator: Adobe Illustrator 25.3.0, SVG Export Plug-In . SVG Version: 6.00 Build 0)  -->
<svg version="1.1" id="Layer_1" xmlns="http://www.w3.org/2000/svg" xmlns:xlink="http://www.w3.org/1999/xlink" x="0px" y="0px"
	 viewBox="0 0 329.7 179.2" style="enable-background:new 0 0 329.7 179.2;" xml:space="preserve">
<style type="text/css">
	.st0{display:none;fill:#737FBD;stroke:#FFFFFF;stroke-miterlimit:10;}
	.st1{fill:#B0DEF0;stroke:#FFFFFF;stroke-miterlimit:10;}
	.st2{fill:#737FBD;stroke:#FFFFFF;stroke-miterlimit:10;}
	.st3{fill:#AFA7D3;stroke:#FFFFFF;stroke-miterlimit:10;}
	.st4{display:none;fill:#AFA7D3;stroke:#FFFFFF;stroke-miterlimit:10;}
	.st5{fill:#DCEEED;stroke:#000000;stroke-miterlimit:10;}
</style>
<path class="st0" d="M220.1,88c0,47.1,20.8,85.4,46.5,85.4s59.8-38.2,59.8-85.4S292.3,2.7,266.6,2.7S220.1,40.9,220.1,88z"/>
<path class="st1" d="M249.7,148.8h-191v-121h191C283.3,48,279.4,127.8,249.7,148.8z"/>
<path class="st2" d="M113.6,88.5c0,48.9-21.6,88.5-48.2,88.5s-62-39.6-62-88.5S38.8,0,65.4,0C92,0,113.6,39.6,113.6,88.5z"/>
<path class="st3" d="M36.6,163.6C18.6,148.1,3.4,120.1,3.4,88c0-31.9,15.1-59.9,33-75.4C68.5,60.4,66.9,110.9,36.6,163.6z"/>
<path class="st4" d="M311.6,140.7c8.9-14.5,15-32.8,15-52.6c0-19.6-5.9-37.6-14.6-52C320.4,66.1,321.6,101,311.6,140.7z"/>
<path class="st5" d="M210.3,48.3c0,8.4-13.7,15.2-30.7,15.2s-30.7-6.8-30.7-15.2s14.3-8.4,31.3-8.4S210.3,39.9,210.3,48.3z"/>
<path class="st5" d="M119.7,60c0.9-7.2,3.3-10.2,13.7-6.9c3,1,5.5,2.4,13.4,9.7c5.4,5.1,0,14.1-10.8,12.7
	C125.1,74.2,118.9,67.1,119.7,60z"/>
<path class="st2" d="M218.1,89.6c0-48.9,21.6-88.5,48.2-88.5s62,39.6,62,88.5s-35.4,88.5-62,88.5S218.1,138.5,218.1,89.6z"/>
<path class="st3" d="M295.2,14.4C313.1,30,328.3,58,328.3,90c0,31.9-15.1,59.9-33,75.4C263.2,117.6,264.8,67.2,295.2,14.4z"/>
</svg>
