<?xml version="1.0" encoding="utf-8"?>
<svg version="1.1" id="Layer_1" x="0px" y="0px"
	 viewBox="0 0 64.4 30.3" style="enable-background:new 0 0 64.4 30.3;" xml:space="preserve">
<path fill=rgba(70,124,165,0.5) d="M61.6,29.2h-39c-0.8,0-1.5-0.7-1.5-1.5v-25c0-0.8,0.7-1.5,1.5-1.5h39c0.8,0,1.5,0.7,1.5,1.5v25
	C63.1,28.5,62.5,29.2,61.6,29.2z"/>
<path fill=none stroke=rgba(99,172,223,0.5) stroke-width=4 stroke-miterlimit=10 d="M21.6,4.7l17.4,12.6c1.8,1.3,4.3,1.3,6.2,0L62.6,4.7"/>
<path fill=none stroke=currentColor stroke-width=2 stroke-miterlimit=10 d="M61.6,29.2h-39c-0.8,0-1.5-0.7-1.5-1.5v-25c0-0.8,0.7-1.5,1.5-1.5h39c0.8,0,1.5,0.7,1.5,1.5v25
	C63.1,28.5,62.5,29.2,61.6,29.2z"/>
<path fill=none stroke=currentColor stroke-width=2 stroke-linecap=round stroke-miterlimit=10 d="M21.1,2.7l19.3,13.6c1,0.7,2.4,0.7,3.5,0L63.1,2.7"/>
<line fill=none stroke=currentColor stroke-width=2 stroke-linecap=round stroke-miterlimit=10 x1="33" y1="17.8" x2="21.4" y2="26.7"/>
<line fill=none stroke=currentColor stroke-width=2 stroke-linecap=round stroke-miterlimit=10 x1="13" y1="8" x2="17" y2="8"/>
<line fill=none stroke=currentColor stroke-width=2 stroke-linecap=round stroke-miterlimit=10 x1="17" y1="13.1" x2="9" y2="13.1"/>
<line fill=none stroke=currentColor stroke-width=2 stroke-linecap=round stroke-miterlimit=10 x1="5.2" y1="18.1" x2="17.2" y2="18.1"/>
<line fill=none stroke=currentColor stroke-width=2 stroke-linecap=round stroke-miterlimit=10 x1="17.2" y1="23" x2="1.2" y2="23"/>
<line fill=none stroke=currentColor stroke-width=2 stroke-linecap=round stroke-miterlimit=10 x1="51.5" y1="17.8" x2="63.1" y2="26.7"/>
</svg>
